<?xml version="1.0" standalone="no"?>
<!DOCTYPE svg PUBLIC "-//W3C//DTD SVG 20010904//EN"
 "http://www.w3.org/TR/2001/REC-SVG-20010904/DTD/svg10.dtd">
<svg version="1.0" xmlns="http://www.w3.org/2000/svg"
 width="1024.000000pt" height="1024.000000pt" viewBox="0 0 1024.000000 1024.000000"
 preserveAspectRatio="xMidYMid meet">

<g transform="translate(0.000000,1024.000000) scale(0.100000,-0.100000)"
fill="#000000" stroke="none">
<path d="M4820 9180 c-1053 -109 -1975 -826 -2337 -1819 -46 -129 -87 -279
-120 -446 l-27 -140 -4 -907 -3 -907 -22 -7 c-48 -15 -79 -50 -190 -216 -63
-95 -186 -274 -273 -398 -146 -208 -158 -229 -162 -276 -4 -48 -2 -55 31 -90
l35 -39 291 -3 291 -3 0 -399 0 -400 -77 0 c-55 0 -88 -5 -112 -18 -65 -33
-68 -42 -106 -357 -19 -159 -41 -347 -50 -416 -20 -163 -19 -187 5 -227 31
-51 71 -62 215 -62 l125 0 0 -308 c0 -287 1 -312 21 -370 27 -80 98 -160 171
-193 l53 -24 1605 -5 1605 -5 68 -39 c111 -63 277 -117 377 -123 49 -3 103 -1
126 6 47 12 122 74 154 126 l22 35 314 0 314 0 -6 -44 c-8 -57 15 -98 70 -123
64 -28 259 -26 348 5 128 44 254 144 302 241 30 58 35 139 11 185 -12 22 -15
67 -15 199 l0 172 30 -37 c36 -44 87 -63 144 -54 47 8 121 48 135 74 5 10 26
23 48 31 59 21 89 47 113 97 30 61 25 186 -9 254 -32 62 -84 124 -126 150 -19
12 -35 30 -35 40 0 28 -85 191 -135 258 -44 61 -44 61 -28 93 15 31 15 35 -7
75 -12 24 -47 66 -76 94 l-54 51 0 247 0 247 53 19 c102 36 191 117 233 212
65 148 49 315 -41 422 l-26 31 31 121 c36 143 154 727 171 850 15 107 3 172
-49 260 -41 70 -139 155 -285 246 l-82 51 -6 539 c-6 543 -9 583 -50 808 -129
697 -584 1360 -1222 1780 -327 215 -699 358 -1102 422 -117 18 -544 27 -675
14z m485 -210 c549 -52 1016 -248 1446 -609 197 -164 438 -450 558 -660 184
-321 307 -691 341 -1020 9 -94 15 -951 6 -951 -2 0 -64 24 -137 54 -299 119
-489 175 -630 183 l-96 6 -7 161 c-7 178 -26 318 -55 404 -11 31 -18 58 -17
59 1 1 177 -67 392 -153 214 -86 404 -156 422 -157 149 -5 83 324 -102 508
-109 108 -279 184 -415 185 l-46 1 40 35 c74 66 205 155 300 206 103 54 125
76 125 124 0 45 -44 88 -135 130 -212 98 -425 57 -595 -115 -41 -42 -86 -97
-100 -123 -14 -27 -27 -48 -30 -48 -3 0 -18 24 -33 54 -108 206 -310 331 -508
312 -162 -15 -339 -116 -339 -194 0 -46 26 -69 139 -127 132 -67 222 -124 278
-176 32 -30 38 -39 24 -39 -72 0 -231 -25 -291 -45 -210 -72 -379 -257 -408
-450 -16 -103 8 -165 63 -165 14 0 197 49 407 109 490 140 531 151 534 148 1
-1 -6 -28 -17 -60 -11 -32 -26 -91 -34 -130 -15 -71 -52 -456 -77 -781 l-12
-169 -39 -61 c-22 -34 -40 -62 -41 -63 -1 -2 -29 23 -62 55 -152 149 -361 259
-559 295 l-68 13 0 48 c0 47 1 49 37 61 48 17 63 30 76 71 13 39 6 70 -23 102
-27 29 -51 28 -75 -3 -15 -18 -29 -25 -55 -25 -58 0 -80 55 -41 100 41 48 36
102 -12 120 -43 17 -117 -28 -149 -90 -49 -95 -17 -231 62 -261 20 -7 23 -15
23 -59 0 -27 1 -53 3 -57 1 -5 -25 -11 -58 -15 -88 -11 -218 -54 -315 -104
-46 -24 -85 -42 -87 -41 -1 2 -3 259 -3 572 -2 603 -3 620 -48 644 -12 6 -61
11 -111 11 l-91 0 0 413 c0 381 -1 415 -18 447 -11 19 -86 93 -168 164 -82 70
-195 168 -251 218 l-103 89 0 123 c0 142 -9 162 -72 173 -32 5 -41 1 -68 -25
l-30 -30 0 -124 -1 -123 -127 -111 c-70 -61 -181 -159 -248 -217 -71 -62 -128
-119 -137 -140 -15 -31 -17 -84 -17 -446 l0 -411 -100 0 c-94 0 -103 -2 -125
-25 l-25 -24 0 -881 0 -880 -320 0 -320 0 0 788 c0 482 4 831 11 898 29 302
118 604 265 896 327 652 950 1152 1658 1332 290 74 581 100 841 76z m-1035
-1214 c63 -54 116 -101 118 -105 1 -4 -160 -9 -359 -10 l-362 -3 154 134 c84
73 167 145 183 160 l31 26 60 -52 c33 -29 112 -96 175 -150z m200 -631 l0
-335 -124 0 -125 0 -3 188 c-3 179 -4 189 -26 217 -50 63 -127 88 -205 65 -50
-14 -78 -35 -106 -81 -19 -31 -21 -50 -21 -211 l0 -178 -125 0 -125 0 0 335 0
335 430 0 430 0 0 -335z m1745 233 c61 -32 144 -117 179 -185 26 -53 69 -193
61 -201 -2 -3 -44 32 -92 78 -103 98 -229 196 -344 267 l-83 51 45 11 c74 17
177 8 234 -21z m918 -4 c45 -8 46 -14 8 -37 -45 -26 -296 -216 -391 -296 -46
-38 -85 -69 -87 -67 -6 6 31 114 58 169 86 174 238 259 412 231z m-788 -525
c17 -8 30 -22 30 -33 0 -20 17 -14 -385 -125 -124 -35 -260 -73 -302 -86 -91
-27 -95 -22 -42 56 73 111 173 171 330 199 78 14 333 7 369 -11z m775 -35 c87
-26 146 -60 204 -118 47 -48 116 -160 104 -171 -2 -2 -87 28 -188 68 -102 40
-250 97 -330 127 -153 57 -182 72 -163 91 31 31 273 34 373 3z m-2390 -785 l0
-601 -43 -51 c-119 -142 -180 -271 -216 -462 l-18 -90 -48 -6 c-32 -3 -53 -12
-65 -27 -24 -29 -33 -105 -25 -202 4 -45 3 -80 -2 -80 -8 0 -74 78 -300 353
-44 55 -94 108 -110 118 -26 17 -51 19 -290 19 l-263 0 0 815 0 815 690 0 690
0 0 -601z m1868 439 c15 -65 32 -224 32 -296 l0 -52 -61 2 -61 3 6 85 c14 169
46 327 65 316 4 -3 13 -29 19 -58z m32 -492 c0 -28 -10 -45 -51 -87 -28 -29
-62 -70 -76 -91 -14 -21 -27 -37 -28 -36 -1 2 2 58 8 126 l10 122 69 0 68 0 0
-34z m280 -166 c169 -24 451 -125 702 -251 351 -175 508 -301 508 -407 0 -38
-117 -620 -135 -669 -2 -7 -24 7 -52 33 -220 206 -528 401 -821 518 -174 70
-556 185 -734 221 l-27 5 86 128 c145 214 195 282 206 275 6 -3 7 -1 3 5 -9
15 51 95 88 118 26 15 72 30 101 33 6 0 39 -4 75 -9z m-1240 -285 c137 -44
312 -154 387 -246 l22 -26 -84 -32 c-99 -38 -176 -95 -207 -154 -28 -54 -31
-156 -5 -204 l18 -33 -586 0 c-554 0 -586 1 -581 18 2 9 7 33 11 52 24 133
105 294 195 393 104 114 256 206 410 247 111 30 302 23 420 -15z m604 -662
c54 -106 160 -174 302 -194 91 -13 145 -8 339 27 233 44 365 21 511 -89 78
-59 84 -75 60 -158 -35 -118 -10 -297 61 -438 46 -90 62 -103 101 -79 149 95
286 100 356 14 25 -30 31 -48 34 -99 3 -55 0 -69 -30 -127 -69 -134 -191 -179
-362 -133 l-63 16 -89 -90 c-135 -137 -244 -202 -403 -243 -168 -42 -320 -50
-481 -25 -307 47 -536 178 -671 382 -66 101 -89 175 -96 303 -5 102 -3 114 71
455 42 193 80 360 86 373 5 12 18 22 30 22 36 0 94 30 135 69 33 32 70 59 82
61 2 0 14 -21 27 -47z m-2371 -145 c176 -213 463 -563 471 -575 6 -10 -132
-13 -676 -13 l-683 1 -59 87 c-33 48 -110 155 -172 237 -61 83 -143 197 -182
255 l-71 105 562 5 c309 3 597 6 639 8 l77 2 94 -112z m-1513 -25 c25 -36 125
-177 223 -312 l178 -246 -438 -5 c-241 -3 -441 -4 -445 -2 -4 1 44 73 105 160
62 87 159 229 216 315 57 86 107 157 110 157 3 0 26 -30 51 -67z m3423 -59 c0
-5 -21 -101 -46 -214 -25 -113 -48 -220 -52 -238 -4 -18 -10 -32 -13 -30 -4 2
-41 20 -82 40 -319 160 -715 -45 -810 -418 -19 -73 -20 -113 -20 -671 l0 -593
-175 0 -175 0 0 77 0 77 -55 51 -55 52 0 439 0 440 48 13 c147 37 253 187 256
361 1 87 -6 104 -88 203 l-56 69 0 176 0 177 663 -1 c371 -1 661 -5 660 -10z
m-342 -578 c61 -14 123 -47 177 -93 29 -25 34 -36 43 -103 24 -175 96 -319
223 -446 93 -93 145 -130 264 -189 l84 -43 -45 -26 c-145 -85 -309 -92 -381
-17 l-26 28 15 68 c32 134 20 192 -49 253 -33 29 -89 52 -127 52 -9 0 -22 14
-29 30 -27 65 -112 112 -175 96 -13 -3 -39 -19 -57 -35 -18 -15 -50 -31 -70
-34 -21 -3 -49 -14 -62 -24 -29 -21 -66 -83 -66 -110 0 -12 -15 -30 -37 -44
-55 -35 -75 -80 -70 -155 8 -109 74 -220 177 -301 40 -30 80 -75 115 -128 92
-139 221 -245 353 -291 28 -10 52 -21 52 -24 0 -3 -186 -5 -413 -5 l-412 0 0
580 c1 529 2 585 19 640 48 160 166 281 316 321 59 17 113 17 181 0z m-2721
-506 l0 -400 -110 0 -110 0 0 400 0 400 110 0 110 0 0 -400z m680 392 c0 -18
-65 -84 -103 -103 -75 -39 -150 -14 -226 74 l-33 37 181 0 c100 0 181 -3 181
-8z m510 0 c0 -24 -62 -101 -93 -115 -68 -33 -120 -17 -181 55 -58 67 -57 68
119 68 85 0 155 -4 155 -8z m510 -4 c0 -27 -55 -89 -96 -109 -76 -36 -160 -2
-213 86 l-20 35 164 0 c121 0 165 -3 165 -12z m-1392 -215 c126 -103 296 -95
420 21 l48 45 40 -40 c95 -100 235 -127 352 -69 33 17 74 46 90 64 l30 34 61
-58 61 -59 0 -370 c0 -204 -3 -371 -6 -371 -9 0 -73 53 -179 149 l-90 81 -482
0 -483 0 0 371 0 370 43 -63 c24 -35 67 -82 95 -105z m2459 -253 c6 -25 12
-73 12 -106 1 -41 6 -66 16 -74 26 -22 47 -7 62 43 15 51 43 72 76 55 23 -12
22 -55 -3 -146 -23 -82 -18 -122 23 -183 28 -42 102 -93 169 -116 l50 -18 -7
-135 c-4 -74 -9 -137 -11 -139 -9 -10 -142 41 -203 76 -76 45 -185 157 -230
237 -19 32 -48 66 -65 76 -97 58 -152 119 -182 202 -13 37 -13 43 1 57 14 14
19 14 50 -4 33 -17 37 -17 52 -2 16 16 16 20 -5 62 -44 90 -15 126 45 56 24
-29 42 -41 57 -39 19 3 21 8 18 55 -4 63 11 95 41 91 17 -2 25 -14 34 -48z
m2151 -217 l2 -163 -77 53 c-43 29 -102 62 -131 72 -28 10 -52 21 -52 24 0 4
19 17 41 31 22 13 70 53 107 87 103 96 106 93 110 -104z m-358 -144 c74 -17
201 -82 270 -139 36 -29 107 -92 159 -139 l93 -85 -44 -40 c-24 -23 -66 -61
-93 -85 -28 -24 -67 -60 -87 -79 l-37 -35 -109 97 c-70 61 -118 96 -133 96
-36 0 -59 -28 -59 -72 0 -49 13 -75 55 -113 34 -30 34 -31 69 -240 19 -115 31
-213 28 -216 -9 -9 -96 -27 -217 -45 -144 -21 -437 -29 -580 -15 -97 9 -363
55 -371 64 -3 3 -1 16 72 385 62 316 63 327 12 365 -54 41 -97 -6 -119 -128
-16 -91 -34 -110 -102 -100 -29 3 -53 8 -55 9 -2 2 0 78 4 170 l7 165 56 17
c67 19 189 79 266 130 65 43 73 40 99 -41 22 -67 81 -143 140 -180 45 -27 57
-30 135 -30 79 0 91 3 149 34 75 41 128 97 174 186 18 36 40 66 48 69 30 8
126 5 170 -5z m-401 -65 c-62 -66 -158 -93 -207 -58 -12 8 -31 33 -42 54 l-20
39 147 3 c82 2 150 2 152 0 3 -1 -11 -19 -30 -38z m-4161 -431 l-3 -358 -299
-1 -298 -2 5 37 c2 21 22 182 43 359 l38 322 258 0 258 0 -2 -357z m1204 250
c67 -60 166 -148 220 -196 l98 -89 0 -161 0 -162 -675 0 -675 0 0 358 0 357
455 0 456 0 121 -107z m3998 -380 c26 -39 60 -105 75 -147 24 -67 35 -81 101
-141 78 -70 94 -101 94 -182 0 -33 -5 -45 -21 -54 -18 -9 -25 -7 -49 16 -39
38 -60 28 -60 -27 0 -55 -22 -88 -59 -88 -34 0 -43 10 -67 70 -18 47 -41 80
-55 80 -5 0 -21 -14 -36 -30 -19 -22 -35 -30 -53 -28 -23 3 -25 8 -28 57 -2
34 4 74 17 114 12 33 21 70 21 82 0 42 -30 122 -68 180 l-38 59 75 67 c88 78
81 79 151 -28z m-1805 -165 c-3 -13 -16 -92 -30 -177 l-26 -154 22 -23 c13
-13 27 -24 33 -24 6 0 17 -4 25 -9 11 -7 -2 -39 -69 -158 -45 -81 -87 -153
-92 -159 -6 -9 -20 -8 -51 3 -28 10 -68 14 -123 11 -98 -5 -184 -42 -215 -92
-23 -37 -25 -109 -4 -149 l14 -27 -1499 2 c-1495 3 -1499 3 -1527 24 -15 11
-38 40 -50 64 -22 43 -23 53 -23 332 l0 288 463 1 c451 1 1304 6 1360 8 17 1
40 13 58 30 28 28 29 33 29 125 l0 96 248 2 c136 2 520 4 855 6 l607 2 -5 -22z
m1502 -24 c32 -56 36 -91 19 -159 -18 -68 -21 -149 -6 -192 6 -16 9 -79 8
-139 l-3 -109 -68 113 -69 113 26 20 c13 11 27 28 31 38 3 10 -6 92 -20 181
-14 89 -25 165 -25 169 0 4 19 7 42 6 39 -1 45 -5 65 -41z m-1192 -428 c222
-37 384 -44 600 -26 106 9 260 32 306 46 11 3 24 -11 44 -47 15 -29 63 -109
106 -178 79 -126 79 -126 57 -141 -12 -8 -70 -50 -128 -93 l-105 -79 -31 17
c-69 37 -207 150 -271 222 -129 145 -130 146 -160 138 -38 -9 -159 -95 -229
-162 -46 -44 -159 -185 -211 -262 -1 -2 -31 22 -65 54 -35 32 -99 85 -143 118
-44 32 -81 62 -83 66 -1 5 29 63 68 130 39 67 82 145 96 172 18 37 29 49 42
45 9 -3 58 -12 107 -20z m489 -413 c47 -48 86 -89 86 -90 0 -2 -81 -3 -180 -3
-99 0 -180 4 -180 8 0 14 164 164 187 171 0 1 40 -38 87 -86z"/>
<path d="M6775 5768 c-2 -7 -6 -22 -8 -33 -4 -18 -5 -18 -6 3 0 12 -6 22 -12
22 -5 0 -7 -5 -3 -12 5 -7 2 -9 -8 -5 -17 6 -48 -21 -48 -41 0 -7 -5 -12 -11
-12 -6 0 -8 -7 -5 -16 3 -8 2 -12 -4 -9 -6 3 -10 -3 -10 -14 0 -12 -6 -21 -13
-21 -7 0 -29 -22 -50 -50 -33 -45 -35 -50 -19 -60 15 -9 14 -10 -5 -5 -17 5
-23 2 -23 -9 0 -9 6 -16 13 -16 8 0 8 -3 2 -8 -6 -4 -10 -14 -10 -22 1 -8 -3
-24 -8 -34 -7 -15 -6 -18 5 -13 11 4 14 -1 11 -21 -3 -26 -3 -26 6 -4 6 12 17
22 26 22 18 0 19 12 3 28 -9 9 -9 12 -1 12 7 0 15 -9 18 -20 4 -11 11 -18 16
-15 5 4 9 -4 9 -17 -1 -20 -2 -21 -10 -6 -6 10 -18 14 -30 11 -11 -3 -17 -10
-14 -15 4 -6 0 -14 -7 -19 -20 -13 -29 -11 -29 6 0 9 -8 28 -17 42 -10 15 -13
24 -6 20 6 -4 14 -3 18 3 3 5 -1 10 -10 10 -15 0 -15 1 0 16 9 9 14 19 11 22
-9 9 -44 -42 -39 -56 3 -7 2 -12 -3 -10 -5 2 -11 -1 -13 -7 -2 -5 -12 -16 -22
-23 -11 -7 -19 -18 -19 -23 0 -5 -18 -34 -40 -65 -27 -36 -36 -55 -28 -58 107
-27 200 -46 207 -42 5 4 11 2 13 -3 1 -5 17 -13 33 -17 27 -7 29 -6 16 10 -12
14 -12 16 3 10 9 -3 16 -12 16 -20 0 -8 9 -15 20 -15 24 -2 28 -3 61 -17 25
-10 96 -31 111 -32 4 0 25 -7 47 -15 38 -13 39 -13 45 10 3 13 2 35 -4 50 -7
17 -7 24 0 20 6 -3 10 -13 10 -21 0 -12 4 -13 23 -3 21 11 21 11 6 -7 -27 -32
-32 -44 -15 -38 11 4 16 0 16 -11 0 -11 -5 -15 -15 -11 -8 3 -15 2 -15 -2 0
-4 28 -17 63 -29 34 -12 83 -31 109 -43 26 -11 50 -21 52 -21 10 -1 236 -118
257 -133 12 -8 26 -13 31 -10 4 3 8 0 8 -5 0 -6 5 -11 11 -11 6 0 8 7 5 16 -3
8 -2 12 4 9 6 -3 10 -1 10 4 0 6 5 11 10 11 6 0 3 -11 -6 -24 -15 -24 -15 -25
18 -42 18 -9 54 -31 79 -49 36 -26 50 -31 59 -22 10 9 11 9 6 0 -8 -14 26 -48
65 -65 15 -7 26 -15 23 -19 -4 -7 19 -20 48 -25 10 -2 24 5 30 16 7 11 16 20
21 20 4 0 0 -11 -8 -24 -15 -23 -15 -25 7 -40 12 -9 18 -16 13 -16 -6 0 -19 7
-29 15 -11 8 -24 15 -29 15 -5 0 3 -10 19 -22 16 -13 31 -26 32 -30 7 -17 22
-7 22 15 0 17 2 19 9 7 6 -8 7 -18 4 -22 -7 -13 25 -58 42 -58 7 0 17 -5 21
-12 5 -7 3 -8 -7 -3 -12 8 -12 6 0 -8 19 -24 24 -21 19 8 -3 14 -1 25 4 25 6
0 8 6 5 14 -3 7 -1 18 4 23 13 13 40 168 33 186 -5 14 -47 17 -60 5 -4 -5 -2
-8 4 -8 7 0 12 -5 12 -11 0 -8 -5 -8 -15 1 -8 7 -12 17 -9 22 4 6 -2 8 -15 3
-17 -5 -21 -2 -21 18 0 13 -3 26 -6 30 -9 8 -35 -4 -29 -13 3 -5 2 -11 -3 -14
-4 -2 -8 4 -9 14 -2 22 28 31 50 15 12 -8 15 -19 10 -31 -6 -17 -5 -17 10 -5
9 7 15 17 12 21 -3 5 0 12 6 16 8 5 10 0 6 -17 -5 -20 -2 -24 18 -25 20 -2 25
3 25 22 0 33 15 30 18 -3 1 -14 5 -29 8 -32 4 -3 4 6 2 22 -3 15 -2 27 2 27 5
0 14 33 20 73 7 39 14 81 17 92 3 11 9 40 14 65 5 25 12 53 15 64 4 12 2 16
-5 12 -6 -4 -11 -2 -11 3 0 6 5 11 10 11 6 0 10 7 10 16 0 9 -5 12 -12 8 -8
-5 -9 -2 -5 10 10 26 -19 79 -54 100 -23 14 -30 15 -27 5 3 -8 11 -13 17 -12
13 3 15 -13 2 -21 -5 -4 -11 -1 -13 5 -3 8 -9 6 -20 -5 -9 -9 -20 -16 -24 -16
-5 0 -3 5 4 12 18 18 14 31 -8 25 -12 -3 -18 -1 -14 5 3 5 14 8 24 5 28 -7 32
28 6 52 -12 12 -25 21 -29 21 -3 0 -32 18 -63 40 -58 40 -86 52 -65 26 8 -10
9 -16 1 -21 -9 -5 -15 15 -11 38 2 10 -69 40 -77 33 -3 -3 2 -14 11 -24 21
-23 22 -36 2 -29 -8 4 -17 2 -20 -3 -4 -6 -11 -10 -17 -10 -6 0 -6 6 2 15 7 9
20 13 29 10 14 -5 14 -4 0 7 -17 15 -35 53 -19 43 6 -3 10 -3 10 2 0 4 -29 22
-65 40 -59 29 -66 30 -75 15 -9 -14 -10 -13 -5 6 6 20 1 24 -21 21 -4 0 -10 4
-14 11 -4 6 -14 12 -22 14 -9 1 -22 7 -29 12 -8 6 -32 18 -54 26 -35 14 -42
14 -54 1 -7 -8 -16 -11 -20 -7 -3 4 0 9 7 11 6 3 12 8 12 13 0 10 -61 32 -68
25 -3 -2 -10 1 -16 9 -19 23 -63 28 -76 9 -10 -16 -11 -16 -7 4 5 24 -15 33
-152 73 -59 17 -75 19 -82 9 -4 -7 -5 -17 -2 -23 3 -5 1 -6 -5 -2 -13 8 -36
-30 -28 -47 2 -7 5 -4 5 6 1 9 5 17 9 17 15 0 9 -24 -9 -43 -13 -14 -19 -15
-25 -6 -5 8 -3 10 6 4 8 -5 11 -3 8 6 -3 8 -14 13 -24 11 -19 -3 -19 -3 0 11
12 9 17 20 13 31 -4 10 -1 16 8 16 8 0 15 5 15 11 0 5 4 8 8 5 5 -3 9 1 9 8 0
7 -5 13 -11 13 -6 0 -21 3 -33 7 -18 6 -20 4 -16 -12 2 -11 1 -22 -4 -25 -5
-3 -9 4 -9 16 1 31 -39 35 -70 6 -22 -21 -22 -23 -6 -35 9 -8 12 -14 5 -14 -6
0 -15 5 -18 10 -3 6 -11 10 -16 10 -6 0 -7 -4 -4 -10 3 -5 1 -10 -5 -10 -15 0
-8 35 8 36 25 3 27 5 12 15 -13 9 -12 10 2 5 10 -3 20 -1 23 4 4 6 -9 10 -30
10 -20 0 -37 -6 -40 -12z m120 -8 c3 -5 2 -10 -4 -10 -5 0 -13 5 -16 10 -3 6
-2 10 4 10 5 0 13 -4 16 -10z m-7 -19 c11 -7 10 -10 -3 -15 -19 -7 -35 0 -35
15 0 11 20 12 38 0z m134 -27 c-9 -16 -10 -14 -9 8 1 15 6 23 11 18 4 -4 4
-16 -2 -26z m-289 9 c-7 -2 -13 -14 -13 -26 0 -16 -3 -18 -12 -9 -13 13 6 43
26 41 7 0 6 -2 -1 -6z m339 -25 c-7 -7 -12 -8 -12 -2 0 14 12 26 19 19 2 -3
-1 -11 -7 -17z m-266 -2 c11 1 21 -5 21 -12 0 -15 -10 -18 -21 -6 -7 7 -11 8
-37 11 -5 0 -7 6 -3 12 3 6 9 7 13 2 3 -5 15 -8 27 -7z m107 2 c-6 -11 -31
-10 -37 1 -3 5 5 8 18 7 13 0 22 -4 19 -8z m141 -30 c-10 -16 -22 -7 -17 13 4
15 8 17 14 8 4 -7 5 -17 3 -21z m-186 2 c7 -11 9 -20 4 -20 -10 0 -32 22 -32
32 0 15 15 8 28 -12z m139 -5 c-4 -8 -11 -15 -17 -15 -6 0 -6 7 2 20 14 22 24
19 15 -5z m206 -18 c-3 -5 -9 -3 -14 4 -4 7 -5 17 -2 22 3 5 9 3 14 -4 4 -7 5
-17 2 -22z m-453 -14 c0 -32 -5 -28 -14 10 -4 19 -3 26 4 22 5 -3 10 -18 10
-32z m375 19 c-3 -3 -11 0 -18 7 -9 10 -8 11 6 5 10 -3 15 -9 12 -12z m-411
-7 c11 -8 15 -15 9 -15 -6 0 -10 -8 -8 -17 1 -10 8 -17 14 -15 6 1 11 -4 11
-12 0 -11 -5 -12 -24 -3 -13 6 -22 17 -19 23 2 7 0 22 -7 33 -13 24 -3 27 24
6z m192 6 c-7 -11 19 -33 28 -24 4 4 4 -1 0 -11 -5 -14 -9 -15 -15 -4 -5 7 -9
9 -9 3 0 -14 -20 17 -20 33 0 6 5 12 11 12 5 0 8 -4 5 -9z m369 -20 c-6 -5
-25 10 -25 20 0 5 6 4 14 -3 8 -7 12 -15 11 -17z m-460 9 c3 -5 1 -10 -4 -10
-6 0 -11 5 -11 10 0 6 2 10 4 10 3 0 8 -4 11 -10z m230 0 c3 -5 0 -7 -9 -4 -8
3 -25 0 -38 -6 -22 -11 -22 -10 -4 4 23 18 42 20 51 6z m105 -10 c0 -11 -4
-20 -9 -20 -5 0 -7 9 -4 20 3 11 7 20 9 20 2 0 4 -9 4 -20z m-370 -16 c0 -8
-4 -14 -8 -14 -4 0 -8 9 -8 19 0 11 4 17 8 15 4 -3 8 -12 8 -20z m402 8 c-22
-7 -12 -23 11 -18 12 3 16 3 9 0 -6 -3 -10 -9 -7 -14 3 -4 -4 -6 -15 -3 -21 6
-24 12 -14 37 3 9 11 13 17 9 8 -5 7 -8 -1 -11z m178 -4 c0 -6 -6 -5 -15 2 -8
7 -15 14 -15 16 0 2 7 1 15 -2 8 -4 15 -11 15 -16z m-511 -2 c9 -11 9 -16 -1
-22 -7 -4 -10 -4 -6 1 4 4 3 14 -3 22 -6 7 -9 13 -6 13 2 0 10 -6 16 -14z
m-195 -12 c3 -8 2 -12 -4 -9 -6 3 -10 10 -10 16 0 14 7 11 14 -7z m176 -4 c0
-5 -2 -10 -4 -10 -3 0 -8 5 -11 10 -3 6 -1 10 4 10 6 0 11 -4 11 -10z m65 0
c3 -5 -1 -10 -10 -10 -9 0 -13 5 -10 10 3 6 8 10 10 10 2 0 7 -4 10 -10z m127
-12 c-2 -10 -6 -18 -7 -18 -1 0 -5 8 -7 18 -3 11 0 19 7 19 7 0 10 -8 7 -19z
m58 2 c-6 -11 -13 -20 -16 -20 -2 0 0 9 6 20 6 11 13 20 16 20 2 0 0 -9 -6
-20z m275 2 c-3 -3 -11 0 -18 7 -9 10 -8 11 6 5 10 -3 15 -9 12 -12z m-385 -7
c0 -1 -11 -5 -25 -7 -20 -4 -23 -2 -14 8 8 10 39 10 39 -1z m70 -25 c-5 -19
-6 -36 -1 -39 4 -4 10 -21 13 -39 3 -19 1 -29 -4 -24 -5 5 -10 19 -11 31 -1
11 -6 21 -13 21 -8 0 -7 13 4 45 17 52 27 56 12 5z m75 30 c-3 -5 -12 -10 -18
-10 -7 0 -6 4 3 10 19 12 23 12 15 0z m185 -11 c0 -11 -4 -18 -10 -14 -5 3 -7
12 -3 20 7 21 13 19 13 -6z m145 10 c10 -15 -1 -23 -20 -15 -9 3 -13 10 -10
16 8 13 22 13 30 -1z m-769 -24 c-3 -9 -11 -13 -16 -10 -8 5 -7 11 1 21 14 18
24 11 15 -11z m544 5 c-6 -11 -13 -20 -16 -20 -2 0 0 9 6 20 6 11 13 20 16 20
2 0 0 -9 -6 -20z m-580 -12 c0 -10 -6 -18 -14 -18 -8 0 -14 8 -13 18 0 10 7
19 14 19 7 0 13 -9 13 -19z m171 -9 c21 -30 21 -31 1 -20 -11 6 -23 16 -26 23
-3 7 -3 2 0 -12 4 -19 3 -22 -5 -10 -6 8 -11 13 -12 10 0 -3 -2 -13 -4 -23 -2
-13 1 -17 12 -13 13 5 13 4 4 -8 -9 -11 -7 -15 9 -19 11 -3 20 -1 20 4 0 5 5
9 11 9 8 0 8 -4 -1 -14 -9 -11 -18 -13 -37 -5 -20 7 -28 6 -35 -3 -5 -9 -8
-10 -8 -1 0 6 5 15 10 18 6 4 8 11 4 16 -5 9 22 79 31 79 2 0 14 -14 26 -31z
m29 9 c0 -6 -6 -5 -15 2 -8 7 -15 14 -15 16 0 2 7 1 15 -2 8 -4 15 -11 15 -16z
m27 0 c-3 -8 -6 -5 -6 6 -1 11 2 17 5 13 3 -3 4 -12 1 -19z m297 -1 c4 5 7 4
6 -2 -1 -5 -1 -12 0 -15 12 -33 6 -80 -11 -80 -6 0 -6 7 1 19 13 26 13 31 -3
25 -7 -2 -21 3 -32 11 -19 16 -19 16 3 5 38 -18 46 -1 15 33 -15 18 -19 24 -7
14 11 -9 24 -14 28 -10z m200 7 c3 -8 10 -12 16 -9 5 3 10 1 10 -4 0 -6 5 -11
11 -11 5 0 7 5 4 10 -3 6 -2 10 4 10 16 0 20 -14 7 -25 -16 -14 -39 -18 -32
-6 8 12 -30 25 -46 15 -10 -6 -11 -5 -1 8 7 8 10 18 6 21 -3 4 -2 7 4 7 6 0
14 -7 17 -16z m-649 -21 c-13 -30 -15 -53 -5 -53 6 0 10 -5 10 -12 0 -9 -3 -9
-12 0 -14 14 -19 74 -6 66 4 -3 8 3 8 12 0 10 3 15 6 11 4 -3 3 -14 -1 -24z
m40 17 c-3 -5 -12 -10 -18 -10 -7 0 -6 4 3 10 19 12 23 12 15 0z m371 -12 l19
-23 -25 20 c-14 11 -27 21 -29 22 -2 2 0 3 6 3 5 0 18 -10 29 -22z m-526 -22
c0 -5 -6 -3 -13 3 -8 6 -18 7 -23 3 -4 -4 -2 1 5 11 11 14 16 15 22 5 5 -7 9
-17 9 -22z m680 23 c0 -5 -4 -7 -10 -4 -5 3 -10 -1 -10 -10 0 -9 4 -14 9 -11
4 3 17 -4 27 -15 16 -18 16 -19 1 -13 -9 3 -17 10 -17 16 0 5 -4 7 -9 3 -13
-7 -24 13 -17 30 6 17 26 20 26 4z m35 1 c-3 -5 -12 -10 -18 -10 -7 0 -6 4 3
10 19 12 23 12 15 0z m215 -2 c0 -6 -6 -8 -12 -6 -7 3 -20 -5 -30 -16 -14 -17
-19 -19 -30 -8 -11 11 -10 12 4 7 11 -4 20 0 27 13 10 19 41 26 41 10z m-540
-8 c0 -5 -5 -10 -11 -10 -5 0 -7 5 -4 10 3 6 8 10 11 10 2 0 4 -4 4 -10z m250
2 c0 -5 -7 -9 -15 -9 -8 0 -12 4 -9 9 3 4 9 8 15 8 5 0 9 -4 9 -8z m-567 -9
c3 -5 -1 -14 -8 -20 -11 -10 -13 -9 -12 7 1 20 12 26 20 13z m187 -8 c0 -8 -4
-15 -10 -15 -5 0 -7 7 -4 15 4 8 8 15 10 15 2 0 4 -7 4 -15z m83 -15 c16 -27
17 -30 2 -30 -9 0 -13 5 -10 10 9 14 -13 40 -34 40 -18 0 -26 -36 -10 -45 5
-4 9 -12 9 -18 0 -7 -6 -4 -14 5 -7 10 -16 15 -19 11 -4 -3 -7 -2 -7 4 0 5 3
13 8 17 4 4 8 12 8 17 1 5 2 11 3 14 0 3 11 5 24 5 15 0 29 -11 40 -30z m157
20 c0 -5 -2 -10 -4 -10 -3 0 -8 5 -11 10 -3 6 -1 10 4 10 6 0 11 -4 11 -10z
m-476 -24 c-3 -9 -12 -16 -20 -16 -11 0 -10 4 4 18 20 22 25 21 16 -2z m449
-1 c-7 -21 -13 -19 -13 6 0 11 4 18 10 14 5 -3 7 -12 3 -20z m257 21 c0 -3 -4
-8 -10 -11 -5 -3 -10 -1 -10 4 0 6 5 11 10 11 6 0 10 -2 10 -4z m-336 -21 c-4
-8 -10 -12 -15 -9 -14 8 -10 24 6 24 9 0 12 -6 9 -15z m109 -21 c-11 -8 -13
-13 -5 -14 6 0 12 -5 12 -11 0 -5 -4 -8 -9 -4 -5 3 -11 -2 -13 -10 -2 -10 -7
-6 -15 12 -7 14 -10 23 -7 20 8 -8 33 16 27 25 -2 4 3 5 12 2 14 -6 14 -8 -2
-20z m117 17 c0 -5 -7 -12 -16 -15 -14 -5 -15 -4 -4 9 14 17 20 19 20 6z m197
-38 c-3 -10 -5 -2 -5 17 0 19 2 27 5 18 2 -10 2 -26 0 -35z m37 39 c3 -5 -1
-9 -9 -9 -8 0 -12 4 -9 9 3 4 7 8 9 8 2 0 6 -4 9 -8z m-877 -34 c-3 -7 -5 -2
-5 12 0 14 2 19 5 13 2 -7 2 -19 0 -25z m433 17 c-7 -8 -17 -15 -23 -15 -6 0
-2 7 9 15 25 19 30 19 14 0z m244 -15 c-6 -6 -10 -3 -10 10 0 13 4 16 10 10 7
-7 7 -13 0 -20z m84 6 c-2 -17 -6 -22 -14 -16 -6 6 -13 8 -16 5 -3 -3 -11 2
-18 10 -11 14 -10 14 15 5 23 -9 26 -8 21 5 -3 8 -1 15 4 15 5 0 9 -11 8 -24z
m237 14 c3 -5 1 -10 -4 -10 -6 0 -11 5 -11 10 0 6 2 10 4 10 3 0 8 -4 11 -10z
m-911 -32 c-8 -13 -33 3 -27 17 4 11 8 12 18 2 7 -7 11 -15 9 -19z m261 13 c3
-5 1 -12 -5 -16 -5 -3 -10 1 -10 9 0 18 6 21 15 7z m465 -1 c-8 -5 -22 -9 -30
-9 -10 0 -8 3 5 9 27 12 43 12 25 0z m129 -29 c0 -10 -3 -8 -10 7 -5 14 -13
20 -20 16 -8 -4 -9 -3 -5 5 10 16 36 -5 35 -28z m151 18 c0 -5 -4 -9 -8 -9 -5
0 -9 7 -9 15 0 8 4 12 9 9 4 -3 8 -9 8 -15z m-796 -5 c3 -8 2 -12 -4 -9 -6 3
-10 10 -10 16 0 14 7 11 14 -7z m160 -16 c-3 -4 2 -8 10 -8 9 0 16 -5 16 -10
0 -7 -6 -7 -19 -1 -10 6 -21 8 -23 5 -3 -2 -11 4 -19 13 -12 16 -12 17 2 6 19
-15 30 -8 22 15 -4 14 -3 15 5 2 6 -8 8 -18 6 -22z m609 -28 c6 0 8 -2 5 -5
-9 -9 -38 7 -38 21 0 8 -4 14 -10 14 -5 0 -10 8 -10 18 0 11 7 7 21 -15 12
-18 26 -33 32 -33z m-803 40 c-11 -7 -11 -10 -2 -10 7 0 10 -5 7 -10 -8 -13
-25 -3 -25 16 0 8 8 14 18 14 14 0 15 -2 2 -10z m130 5 c0 -2 -9 -9 -20 -15
-12 -6 -20 -7 -20 -1 0 5 8 12 18 14 9 3 18 5 20 6 1 0 2 -1 2 -4z m320 1 c0
-2 -7 -7 -16 -10 -8 -3 -12 -2 -9 4 6 10 25 14 25 6z m-584 -18 c5 -8 2 -9 -9
-5 -10 4 -17 1 -17 -5 0 -6 -3 -9 -6 -5 -7 7 4 27 16 27 5 0 12 -5 16 -12z
m64 2 c0 -5 -5 -10 -11 -10 -5 0 -7 5 -4 10 3 6 8 10 11 10 2 0 4 -4 4 -10z
m470 -10 c-6 -11 -13 -20 -16 -20 -2 0 0 9 6 20 6 11 13 20 16 20 2 0 0 -9 -6
-20z m456 -6 c-4 -9 -9 -15 -11 -12 -3 3 -3 13 1 22 4 9 9 15 11 12 3 -3 3
-13 -1 -22z m-413 0 c-5 -13 -2 -15 15 -10 11 4 23 2 27 -3 4 -7 -1 -8 -11 -4
-12 4 -15 3 -10 -5 4 -7 17 -12 29 -13 21 0 21 -1 2 -9 -13 -5 -26 -3 -36 6
-9 8 -19 11 -22 7 -4 -3 -7 3 -7 14 0 11 3 23 7 26 11 11 13 8 6 -9z m80 9
c-7 -2 -21 -2 -30 0 -10 3 -4 5 12 5 17 0 24 -2 18 -5z m62 -25 c0 -29 -9 -36
-20 -17 -4 6 -14 8 -22 5 -8 -4 -11 -1 -8 5 4 6 13 8 21 5 8 -3 14 1 14 8 0 8
-6 16 -12 19 -7 3 -4 5 7 4 15 -1 20 -8 20 -29z m-774 -1 c-10 -9 -11 -8 -5 6
3 10 9 15 12 12 3 -3 0 -11 -7 -18z m69 1 c-14 -11 -24 -27 -22 -34 4 -18 -4
-18 -11 0 -6 16 27 56 46 56 7 -1 1 -10 -13 -22z m189 0 c-5 -10 -13 -18 -16
-18 -3 0 -3 3 0 7 4 3 3 11 -3 17 -6 8 -3 12 10 12 15 0 16 -4 9 -18z m51 -12
c-14 -14 -32 3 -17 18 9 10 14 11 19 2 4 -6 3 -15 -2 -20z m633 14 c-3 -12 -8
-19 -11 -16 -5 6 5 36 12 36 2 0 2 -9 -1 -20z m-810 -15 c-7 -21 -12 -19 -10
4 0 11 5 18 9 15 4 -3 5 -11 1 -19z m95 4 c3 -12 2 -12 -6 0 -6 8 -15 10 -22
6 -9 -5 -11 -4 -6 4 10 15 28 10 34 -10z m208 -4 c3 -17 -12 -20 -21 -5 -3 6
-1 10 5 10 6 0 8 6 4 13 -4 6 -3 8 1 4 5 -4 10 -14 11 -22z m109 15 c-3 -5
-12 -10 -18 -10 -7 0 -6 4 3 10 19 12 23 12 15 0z m265 0 c0 -5 -7 -7 -15 -4
-8 4 -15 8 -15 10 0 2 7 4 15 4 8 0 15 -4 15 -10z m-711 -56 c-6 -8 -17 -14
-23 -14 -6 0 -5 4 3 9 11 7 10 10 -5 14 -17 4 -16 5 3 6 16 1 20 6 17 24 -4
21 -4 21 6 -2 7 -17 7 -27 -1 -37z m251 26 c4 0 10 7 14 15 8 21 23 19 29 -6
5 -17 3 -18 -11 -7 -13 11 -15 11 -9 -4 3 -10 1 -20 -5 -24 -7 -4 -8 -3 -4 4
4 7 1 12 -8 12 -8 0 -16 -5 -18 -11 -2 -7 -9 -5 -17 5 -9 11 -10 16 -2 16 6 0
12 8 12 18 1 16 2 16 6 0 2 -10 8 -18 13 -18z m260 26 c0 -2 -7 -7 -16 -10 -8
-3 -12 -2 -9 4 6 10 25 14 25 6z m292 -12 c-5 -9 -7 -26 -4 -37 3 -14 1 -18
-7 -13 -6 4 -8 12 -5 18 5 7 1 9 -8 5 -10 -3 -23 3 -34 16 -10 12 -12 16 -4
10 15 -14 51 -18 49 -5 -3 15 1 22 11 22 7 0 8 -6 2 -16z m232 0 c3 -8 2 -12
-4 -9 -6 3 -10 10 -10 16 0 14 7 11 14 -7z m-1258 -19 c3 -22 -17 -30 -28 -11
-11 19 -34 21 -41 4 -4 -10 -6 -10 -6 0 -1 19 27 26 44 12 14 -12 20 -7 15 15
-1 6 2 6 6 2 4 -4 9 -14 10 -22z m309 15 c3 -5 1 -10 -4 -10 -6 0 -11 5 -11
10 0 6 2 10 4 10 3 0 8 -4 11 -10z m382 -20 c-2 -11 -6 -22 -10 -26 -3 -4 -4
6 -1 21 3 19 1 24 -7 19 -8 -4 -9 -3 -5 5 11 16 26 3 23 -19z m384 -3 c-17
-17 -13 -37 7 -31 14 5 15 4 2 -5 -11 -8 -18 -6 -28 7 -10 14 -10 19 3 28 8 6
15 17 16 25 0 11 2 11 6 1 3 -8 0 -19 -6 -25z m-806 3 c-13 -15 -15 -23 -7
-33 8 -10 6 -21 -8 -42 -11 -17 -20 -26 -20 -22 0 4 7 19 16 32 16 24 15 25
-5 25 -11 0 -21 -5 -21 -11 0 -5 6 -7 13 -3 8 5 8 2 -2 -9 -7 -9 -19 -17 -25
-16 -7 0 -6 2 2 6 6 2 9 9 6 14 -3 6 6 22 20 36 14 14 26 30 26 34 0 5 5 9 12
9 6 0 3 -9 -7 -20z m139 5 c3 -8 3 -22 0 -30 -4 -8 -1 -15 5 -15 6 0 10 -11 9
-24 -1 -14 -6 -22 -10 -20 -4 3 -5 11 -1 19 3 8 1 15 -4 15 -4 0 -14 9 -20 20
-11 16 -10 18 2 14 18 -7 20 7 3 24 -8 8 -8 12 -1 12 6 0 13 -7 17 -15z m328
-7 c-16 -16 -15 -41 1 -35 6 2 11 10 10 16 -4 16 8 13 22 -5 10 -14 15 -14 34
-4 13 6 25 9 29 6 3 -3 0 -6 -7 -6 -7 0 -9 -5 -6 -11 4 -6 13 -8 20 -5 7 2 16
-1 19 -9 3 -10 -2 -12 -17 -9 -12 2 -23 8 -25 14 -6 17 -22 11 -22 -7 0 -14
-3 -13 -16 5 -8 12 -20 20 -25 16 -6 -4 -5 -11 2 -20 11 -13 9 -13 -14 -3 -15
7 -27 19 -27 26 0 20 20 56 28 49 3 -4 0 -12 -6 -18z m221 2 c14 -17 14 -20 2
-20 -8 0 -18 0 -22 -1 -4 0 -10 9 -15 20 -10 27 12 28 35 1z m-808 -2 c5 4 5
2 2 -5 -6 -9 -18 -10 -45 -4 -2 1 0 6 3 11 5 8 11 8 19 1 7 -6 17 -7 21 -3z
m210 3 c3 -5 2 -12 -3 -15 -5 -3 -9 1 -9 9 0 17 3 19 12 6z m235 -8 c-19 -13
-30 -60 -12 -49 5 3 9 -1 9 -8 0 -8 -6 -12 -13 -9 -9 3 -12 -3 -8 -22 4 -22 3
-24 -10 -13 -7 7 -10 15 -5 18 4 3 -1 11 -12 18 -16 10 -20 10 -25 -2 -3 -8
-13 -17 -21 -20 -12 -5 -13 -4 -5 7 7 8 8 18 4 22 -4 5 -1 4 7 0 11 -6 13 -4
8 10 -7 16 -6 17 17 1 34 -22 36 -21 36 15 0 24 -4 30 -15 25 -8 -3 -15 -1
-15 4 0 9 22 16 58 17 23 0 23 0 2 -14z m257 2 c0 -8 -4 -12 -9 -9 -4 3 -8 9
-8 15 0 5 4 9 8 9 5 0 9 -7 9 -15z m276 -31 c-3 -8 -10 -11 -16 -7 -8 5 -7 8
2 11 9 3 7 10 -6 26 -18 21 -18 21 4 3 12 -11 19 -25 16 -33z m22 36 c3 -5 1
-10 -4 -10 -6 0 -11 5 -11 10 0 6 2 10 4 10 3 0 8 -4 11 -10z m-489 -16 c-3
-23 -32 -38 -39 -20 -4 10 1 13 16 10 12 -2 16 -2 10 2 -17 8 -16 24 1 24 8 0
13 -7 12 -16z m251 10 c-3 -3 -12 -4 -19 -1 -8 3 -5 6 6 6 11 1 17 -2 13 -5z
m289 -39 c-8 -32 -12 -40 -17 -28 -4 10 -2 24 3 31 7 8 7 12 -1 12 -6 0 -11 5
-11 11 0 5 4 8 9 4 5 -3 12 -1 16 5 11 18 11 11 1 -35z m70 22 c0 -13 -6 -24
-13 -24 -8 0 -8 7 0 24 13 29 15 29 13 0z m42 16 c-4 -12 28 -54 35 -46 4 3 7
1 7 -5 0 -24 -17 -19 -34 9 -9 16 -22 27 -27 24 -5 -4 -9 -2 -9 4 0 8 9 14 28
20 1 1 1 -2 0 -6z m-1246 -30 c-23 -19 -25 -24 -12 -33 12 -9 10 -10 -9 -8
-16 2 -25 -2 -27 -14 -3 -23 14 -34 22 -14 3 9 10 13 15 10 12 -7 12 -54 0
-54 -6 0 -8 9 -6 20 2 11 0 18 -6 15 -5 -4 -9 -16 -9 -28 0 -16 -6 -9 -20 22
-22 49 -24 55 -11 47 5 -3 14 1 21 9 10 12 10 15 -3 15 -9 0 -19 4 -22 10 -4
6 1 7 11 3 13 -5 15 -3 10 8 -4 8 -1 6 7 -4 12 -14 16 -15 26 -4 6 8 9 16 6
18 -2 3 5 5 15 5 17 0 16 -3 -8 -23z m-124 6 c-2 -6 3 -14 11 -17 8 -2 11 0 8
5 -3 5 0 10 8 10 8 0 16 -6 19 -12 3 -9 -6 -12 -28 -12 -23 1 -32 6 -33 19 -1
10 2 18 8 18 5 0 8 -5 7 -11z m982 3 c0 -5 -7 -9 -15 -9 -8 0 -12 4 -9 9 3 4
9 8 15 8 5 0 9 -4 9 -8z m-780 -12 c0 -5 5 -10 11 -10 5 0 7 5 3 11 -4 7 -1
10 6 7 8 -2 16 -10 18 -18 3 -7 0 -10 -6 -6 -5 3 -12 -1 -16 -9 -3 -9 3 -19
14 -25 12 -6 17 -16 13 -26 -5 -15 -18 -10 -18 7 0 10 -8 11 -30 3 -8 -3 -12
-10 -9 -15 3 -5 11 -6 17 -3 7 4 9 3 4 -1 -12 -13 -49 -17 -42 -4 7 10 14 46
18 82 1 18 17 25 17 7z m1246 -16 c-4 -9 -9 -15 -11 -12 -3 3 -3 13 1 22 4 9
9 15 11 12 3 -3 3 -13 -1 -22z m-1443 -26 c18 3 22 -6 9 -23 -8 -12 -27 -13
-38 -3 -4 4 -14 2 -22 -5 -9 -6 -13 -7 -10 -2 4 6 3 17 -2 25 -6 10 -3 20 8
30 16 15 18 15 28 -4 5 -12 18 -20 27 -18z m153 29 c20 8 17 -4 -4 -16 -15 -8
-18 -5 -19 12 0 12 1 17 4 10 2 -7 11 -9 19 -6z m228 -7 c10 7 17 6 25 -4 9
-11 8 -15 -3 -19 -11 -4 -13 -1 -9 10 5 12 3 14 -8 8 -26 -17 -47 -13 -41 8 4
17 6 18 14 3 7 -13 13 -14 22 -6z m124 -5 c-3 -14 0 -25 6 -26 7 0 6 -3 -1 -6
-7 -2 -13 -11 -13 -19 0 -8 -5 -14 -11 -14 -5 0 -8 4 -5 9 4 5 0 12 -6 14 -9
4 -7 6 3 6 11 1 16 9 15 24 -2 24 2 37 11 37 3 0 3 -11 1 -25z m226 10 c-4 -8
-11 -12 -16 -9 -6 4 -5 10 3 15 19 12 19 11 13 -6z m342 -12 c-7 -7 -26 7 -26
19 0 6 6 6 15 -2 9 -7 13 -15 11 -17z m144 23 c0 -11 -19 -15 -25 -6 -3 5 1
10 9 10 9 0 16 -2 16 -4z m140 0 c0 -2 -7 -9 -15 -16 -13 -11 -14 -10 -9 4 5
14 24 23 24 12z m-915 -17 c11 -16 1 -19 -13 -3 -7 8 -8 14 -3 14 5 0 13 -5
16 -11z m233 -14 c-3 -3 -9 2 -12 12 -6 14 -5 15 5 6 7 -7 10 -15 7 -18z m339
19 c-3 -3 -12 -4 -19 -1 -8 3 -5 6 6 6 11 1 17 -2 13 -5z m-249 -34 c-1 -17
-5 -27 -9 -23 -7 7 -2 53 6 53 2 0 3 -14 3 -30z m357 20 c3 -5 2 -10 -4 -10
-5 0 -13 5 -16 10 -3 6 -2 10 4 10 5 0 13 -4 16 -10z m-79 -27 c-7 -7 -26 7
-26 19 0 6 6 6 15 -2 9 -7 13 -15 11 -17z m324 23 c0 -2 -7 -7 -16 -10 -8 -3
-12 -2 -9 4 6 10 25 14 25 6z m-1328 -31 c1 -11 10 -26 18 -33 13 -11 12 -12
-5 -4 -11 5 -27 7 -35 4 -12 -4 -13 -2 -2 9 6 7 12 22 12 33 0 24 7 18 12 -9z
m108 -12 c-11 -17 -11 -17 -6 0 3 10 6 24 7 30 0 9 2 9 5 0 3 -7 0 -20 -6 -30z
m184 28 c3 -5 -1 -11 -9 -14 -9 -4 -12 -1 -8 9 6 16 10 17 17 5z m496 -1 c0
-5 -2 -10 -4 -10 -3 0 -8 5 -11 10 -3 6 -1 10 4 10 6 0 11 -4 11 -10z m35 -11
c-4 -5 -12 -9 -18 -8 -9 0 -8 2 1 6 6 2 9 10 6 15 -4 7 -2 8 5 4 6 -4 9 -12 6
-17z m225 15 c0 -8 -19 -13 -24 -6 -3 5 1 9 9 9 8 0 15 -2 15 -3z m212 -34
c-2 -3 -7 1 -9 7 -3 10 -10 10 -26 2 -18 -9 -18 -7 3 10 23 18 26 18 31 3 4
-9 4 -19 1 -22z m198 30 c0 -5 -2 -10 -4 -10 -3 0 -8 5 -11 10 -3 6 -1 10 4
10 6 0 11 -4 11 -10z m-1127 -20 c-3 -11 -9 -20 -15 -20 -5 0 -4 9 2 20 6 11
12 20 14 20 2 0 2 -9 -1 -20z m77 5 c11 -13 10 -14 -4 -9 -9 3 -16 10 -16 15
0 13 6 11 20 -6z m230 1 c-6 -9 -19 -12 -28 -8 -17 6 -14 7 37 21 2 1 -2 -5
-9 -13z m60 -5 c0 -5 -11 -11 -25 -14 -24 -4 -25 -3 -9 14 16 18 34 17 34 0z
m-160 -6 c0 -8 -4 -15 -10 -15 -5 0 -7 7 -4 15 4 8 8 15 10 15 2 0 4 -7 4 -15z
m406 3 c4 -7 4 -10 -1 -6 -4 4 -16 -3 -27 -15 l-19 -22 17 28 c19 31 20 32 30
15z m172 -13 c-3 -3 -9 2 -12 12 -6 14 -5 15 5 6 7 -7 10 -15 7 -18z m256 9
c3 -8 2 -12 -4 -9 -6 3 -10 10 -10 16 0 14 7 11 14 -7z m-1086 -11 c-6 -7 -15
-10 -22 -6 -17 11 -36 12 -36 2 0 -5 4 -9 8 -9 5 0 9 -7 9 -15 0 -20 -4 -19
-17 5 -15 28 -7 36 33 35 27 0 33 -3 25 -12z m601 -6 c0 -8 -3 -7 -6 2 -4 11
-7 11 -14 0 -4 -7 -11 -10 -16 -6 -9 9 17 28 29 21 4 -3 8 -11 7 -17z m99 11
c9 -9 12 -9 12 0 0 7 5 12 11 12 8 0 8 -5 -1 -15 -10 -12 -10 -15 4 -15 9 0
16 -8 16 -20 0 -11 -4 -20 -10 -20 -5 0 -10 -7 -10 -16 0 -8 -5 -12 -11 -9 -7
5 -5 13 5 24 17 18 21 35 9 28 -5 -2 -19 7 -32 20 -13 13 -20 23 -15 23 6 0
15 -5 22 -12z m77 -16 c-6 -7 -34 11 -29 19 3 5 11 3 19 -4 7 -6 12 -13 10
-15z m72 6 c-3 -8 -6 -5 -6 6 -1 11 2 17 5 13 3 -3 4 -12 1 -19z m280 16 c-3
-3 -12 -4 -19 -1 -8 3 -5 6 6 6 11 1 17 -2 13 -5z m-1023 -20 c3 -8 2 -12 -4
-9 -6 3 -10 10 -10 16 0 14 7 11 14 -7z m90 0 c3 -8 2 -12 -4 -9 -6 3 -10 10
-10 16 0 14 7 11 14 -7z m263 1 c0 -8 -4 -15 -9 -15 -10 0 -11 14 -1 23 9 10
10 9 10 -8z m67 0 c-4 -8 -11 -12 -16 -9 -6 4 -5 10 3 15 19 12 19 11 13 -6z
m421 5 c-3 -5 -12 -10 -18 -10 -7 0 -6 4 3 10 19 12 23 12 15 0z m123 -15 c-3
-3 -9 2 -12 12 -6 14 -5 15 5 6 7 -7 10 -15 7 -18z m-922 3 c4 -7 3 -10 -1 -5
-5 4 -15 -5 -22 -20 -7 -16 -11 -20 -8 -10 3 10 5 25 5 33 0 17 16 18 26 2z
m344 -3 c7 -9 8 -15 2 -15 -5 0 -12 7 -16 15 -3 8 -4 15 -2 15 2 0 9 -7 16
-15z m487 -7 c-3 -8 -6 -5 -6 6 -1 11 2 17 5 13 3 -3 4 -12 1 -19z m-1162 2
c3 -5 1 -10 -4 -10 -6 0 -11 5 -11 10 0 6 2 10 4 10 3 0 8 -4 11 -10z m423 -4
c-7 -8 -15 -12 -17 -11 -5 6 10 25 20 25 5 0 4 -6 -3 -14z m677 -4 c-3 -3 -11
0 -18 7 -9 10 -8 11 6 5 10 -3 15 -9 12 -12z m110 -3 c-4 -5 -12 -9 -18 -8 -9
0 -8 2 1 6 6 2 9 10 6 15 -4 7 -2 8 5 4 6 -4 9 -12 6 -17z m112 -1 c-3 -8 -6
-5 -6 6 -1 11 2 17 5 13 3 -3 4 -12 1 -19z m-1137 -12 c0 -7 -5 -17 -12 -24
-9 -9 -8 -12 7 -12 10 0 16 -2 13 -5 -9 -9 -58 6 -52 16 3 5 -4 9 -15 9 -11 0
-22 4 -26 9 -3 6 7 6 27 0 42 -12 41 -12 35 10 -3 14 -1 18 9 14 8 -3 14 -11
14 -17z m433 17 c3 -5 -6 -8 -19 -8 -13 0 -24 3 -24 8 0 4 9 7 19 7 11 0 22
-3 24 -7z m133 -15 c19 -23 19 -23 -2 -5 -11 9 -24 14 -28 10 -10 -11 -37 -12
-30 -2 3 5 9 7 14 4 5 -3 11 -1 15 5 8 14 9 13 31 -12z m49 4 c-3 -3 -11 0
-18 7 -9 10 -8 11 6 5 10 -3 15 -9 12 -12z m75 -17 c-7 -8 -9 -15 -6 -15 4 0
3 -8 -3 -17 -7 -13 -5 -23 6 -35 15 -16 15 -18 0 -18 -10 0 -16 3 -15 8 0 4
-2 15 -7 26 -4 10 -4 21 2 25 5 3 9 16 10 29 1 35 2 37 15 24 8 -8 8 -15 -2
-27z m550 25 c0 -5 -5 -10 -11 -10 -5 0 -7 5 -4 10 3 6 8 10 11 10 2 0 4 -4 4
-10z m-1155 -10 c-3 -5 -11 -10 -16 -10 -6 0 -7 5 -4 10 3 6 11 10 16 10 6 0
7 -4 4 -10z m86 -8 c-7 -2 -18 1 -23 6 -8 8 -4 9 13 5 13 -4 18 -8 10 -11z
m139 8 c0 -5 -4 -10 -9 -10 -6 0 -13 5 -16 10 -3 6 1 10 9 10 9 0 16 -4 16
-10z m340 -10 c6 -11 7 -20 2 -20 -6 0 -12 9 -15 20 -3 11 -3 20 -1 20 2 0 8
-9 14 -20z m171 3 c13 -16 12 -17 -3 -4 -10 7 -18 15 -18 17 0 8 8 3 21 -13z
m-926 -11 c-3 -3 -11 0 -18 7 -9 10 -8 11 6 5 10 -3 15 -9 12 -12z m589 7 c-2
-4 0 -10 6 -14 13 -8 13 -25 -1 -25 -5 0 -8 4 -4 9 3 5 1 12 -4 15 -5 3 -12
-2 -15 -11 -4 -9 -1 -20 5 -24 6 -4 9 -11 5 -17 -3 -6 4 -18 16 -27 l23 -17
-24 7 c-17 5 -22 4 -16 -5 5 -8 4 -11 -2 -7 -6 4 -9 18 -8 31 3 27 -18 52 -35
41 -5 -3 -10 -1 -10 4 0 6 9 11 21 11 15 0 19 5 15 18 -4 13 -1 18 13 18 11 0
18 -4 15 -7z m491 -7 c-3 -3 -11 0 -18 7 -9 10 -8 11 6 5 10 -3 15 -9 12 -12z
m-705 -6 c-6 -6 -18 -5 -32 1 -21 10 -21 10 9 9 19 -1 28 -5 23 -10z m340 -7
c-21 -6 -22 -7 -5 -9 19 -1 19 -2 -2 -10 -12 -5 -26 -17 -32 -27 -10 -17 -10
-17 -11 0 0 9 5 17 10 17 6 0 10 6 10 13 0 20 21 36 39 29 13 -5 11 -8 -9 -13z
m280 17 c0 -2 -8 -10 -17 -17 -16 -13 -17 -12 -4 4 13 16 21 21 21 13z m129
-12 c7 9 28 16 45 15 26 0 28 -2 11 -8 -11 -5 -25 -6 -31 -4 -6 2 -17 -3 -24
-11 -15 -19 -30 -12 -29 12 0 15 1 15 8 -1 6 -17 8 -17 20 -3z m-797 -12 c-7
-2 -10 -8 -7 -12 6 -9 60 6 85 23 12 9 13 8 3 -2 -6 -7 -9 -21 -6 -30 4 -13 3
-13 -5 -2 -8 11 -16 11 -46 1 -19 -6 -39 -16 -43 -22 -4 -7 0 -9 10 -5 10 3
17 2 17 -3 0 -6 -4 -10 -10 -10 -5 0 -10 -5 -10 -11 0 -6 7 -8 18 -4 12 4 14
3 6 -5 -17 -17 -41 -2 -41 26 0 13 3 24 7 24 4 0 5 11 2 25 -4 21 -1 24 14 18
11 -4 13 -8 6 -11z m708 8 c0 -5 -7 -7 -15 -4 -8 4 -15 8 -15 10 0 2 7 4 15 4
8 0 15 -4 15 -10z m50 -14 c0 -2 -9 -2 -20 1 -11 3 -20 9 -20 15 0 5 9 4 20
-2 11 -6 20 -12 20 -14z m155 14 c3 -5 2 -10 -4 -10 -5 0 -13 5 -16 10 -3 6
-2 10 4 10 5 0 13 -4 16 -10z m-1075 -8 c0 -13 -12 -22 -22 -16 -10 6 -1 24
13 24 5 0 9 -4 9 -8z m308 -15 c8 -7 12 -4 13 9 0 18 1 18 8 0 5 -13 1 -26
-11 -38 -22 -22 -49 -20 -55 2 -4 12 -3 13 5 1 11 -15 42 -8 42 9 0 13 -41 30
-54 22 -5 -3 -6 0 -2 6 7 11 31 6 54 -11z m167 13 c3 -5 1 -10 -4 -10 -6 0
-11 5 -11 10 0 6 2 10 4 10 3 0 8 -4 11 -10z m301 -3 c5 -4 0 -5 -11 -1 -18 7
-18 6 -6 -9 7 -9 9 -17 3 -17 -5 0 -13 -16 -17 -36 -3 -20 -9 -34 -11 -31 -3
3 -1 22 5 43 11 39 0 61 -23 47 -5 -3 -6 -2 -3 3 7 12 52 12 63 1z m371 1 c-2
-7 3 -19 12 -26 14 -11 13 -12 -5 -3 -12 6 -25 7 -30 3 -5 -4 -3 0 4 9 6 9 9
19 5 22 -3 4 -1 7 6 7 7 0 11 -6 8 -12z m-322 -8 c-3 -5 -12 -10 -18 -10 -7 0
-6 4 3 10 19 12 23 12 15 0z m170 -10 c4 -11 11 -18 16 -14 5 3 7 10 4 15 -4
5 -1 9 4 9 14 0 14 -3 -2 -32 l-12 -24 -16 33 c-9 18 -13 33 -8 33 4 0 11 -9
14 -20z m-961 -5 c-4 -8 -8 -15 -10 -15 -2 0 -4 7 -4 15 0 8 4 15 10 15 5 0 7
-7 4 -15z m34 -10 c-3 -3 -9 2 -12 12 -6 14 -5 15 5 6 7 -7 10 -15 7 -18z
m612 15 c0 -5 6 -7 13 -4 8 3 19 -1 26 -9 9 -11 8 -17 -3 -26 -11 -10 -17 -8
-28 8 -8 12 -17 19 -20 16 -2 -3 -5 2 -5 10 0 8 4 15 9 15 4 0 8 -4 8 -10z
m-103 -6 c-3 -3 -12 -4 -19 -1 -8 3 -5 6 6 6 11 1 17 -2 13 -5z m329 -9 c4 -8
10 -12 15 -9 5 3 9 0 9 -5 0 -6 -7 -11 -15 -11 -8 0 -15 -6 -15 -12 0 -10 -3
-9 -9 1 -6 9 -10 10 -14 2 -3 -7 -4 -7 -2 1 1 7 8 12 14 11 6 -2 11 4 11 13 0
8 -4 12 -10 9 -5 -3 -10 -1 -10 4 0 16 20 13 26 -4z m56 -3 c-7 -2 -9 -9 -5
-15 3 -7 2 -8 -2 -4 -16 14 -14 36 3 29 10 -4 12 -7 4 -10z m-158 -7 c3 -8 1
-15 -4 -15 -6 0 -10 7 -10 15 0 8 2 15 4 15 2 0 6 -7 10 -15z m-468 -19 c0
-13 -4 -22 -8 -20 -9 6 -6 44 3 44 4 0 6 -11 5 -24z m137 9 c-3 -9 -8 -14 -10
-11 -3 3 -2 9 2 15 9 16 15 13 8 -4z m99 -9 c-3 -14 1 -16 17 -11 12 4 21 2
21 -4 0 -6 -3 -10 -7 -10 -20 3 -26 -2 -13 -11 9 -6 10 -10 3 -10 -15 0 -36
37 -28 49 3 5 0 12 -5 14 -6 3 -5 4 2 3 7 -2 12 -11 10 -20z m573 6 c-3 -3
-11 0 -18 7 -9 10 -8 11 6 5 10 -3 15 -9 12 -12z m55 14 c0 -2 -6 -9 -14 -15
-11 -9 -16 -9 -22 0 -4 8 -3 9 4 5 7 -4 12 -2 12 3 0 6 5 11 10 11 6 0 10 -2
10 -4z m-813 -18 c0 -7 -9 -22 -20 -33 -19 -20 -19 -20 -3 13 18 35 23 39 23
20z m453 8 c0 -3 -4 -8 -10 -11 -5 -3 -10 -1 -10 4 0 6 5 11 10 11 6 0 10 -2
10 -4z m-555 -26 c3 -5 2 -10 -4 -10 -5 0 -13 5 -16 10 -3 6 -2 10 4 10 5 0
13 -4 16 -10z m29 -6 c3 -8 2 -12 -4 -9 -6 3 -10 10 -10 16 0 14 7 11 14 -7z
m468 9 c-6 -2 -10 -9 -6 -14 3 -5 0 -9 -5 -9 -12 0 -14 13 -4 23 3 4 11 7 17
6 6 0 5 -3 -2 -6z m153 -2 c3 -5 2 -12 -3 -15 -5 -3 -9 1 -9 9 0 17 3 19 12 6z
m230 -1 c4 -6 3 -10 -2 -9 -20 3 -25 -2 -13 -16 10 -12 9 -15 -4 -15 -10 0
-14 5 -11 10 3 6 1 10 -6 10 -8 0 -8 4 1 15 15 18 26 19 35 5z m-538 -22 c-3
-8 -6 -5 -6 6 -1 11 2 17 5 13 3 -3 4 -12 1 -19z m48 12 c3 -6 -1 -7 -9 -4
-18 7 -21 14 -7 14 6 0 13 -4 16 -10z m131 -6 c-9 -8 -14 -20 -11 -25 4 -5 1
-9 -4 -9 -14 0 -14 6 -1 31 6 10 15 19 21 19 6 0 3 -7 -5 -16z m44 12 c0 -3
-4 -8 -10 -11 -5 -3 -10 -1 -10 4 0 6 5 11 10 11 6 0 10 -2 10 -4z m153 -16
c-6 -21 -25 -28 -20 -7 2 10 16 26 24 27 0 0 -1 -9 -4 -20z m80 5 c4 -8 -2
-12 -17 -11 -12 0 -23 6 -23 11 0 16 35 16 40 0z m27 5 c0 -5 -2 -10 -4 -10
-3 0 -8 5 -11 10 -3 6 -1 10 4 10 6 0 11 -4 11 -10z m-836 -16 c9 -9 16 -11
16 -4 0 6 5 8 11 4 7 -4 8 -9 0 -17 -7 -7 -14 -7 -24 1 -8 7 -18 8 -22 4 -5
-4 -5 -2 -2 5 4 6 1 14 -5 16 -9 4 -9 6 -1 6 6 1 19 -6 27 -15z m256 2 c0 -8
5 -16 12 -18 9 -3 9 -6 0 -12 -7 -4 -12 -2 -12 4 0 6 -5 8 -12 4 -7 -5 -8 -3
-3 6 4 7 2 16 -6 21 -11 7 -10 9 4 9 9 0 17 -6 17 -14z m30 4 c0 -5 -2 -10 -4
-10 -3 0 -8 5 -11 10 -3 6 -1 10 4 10 6 0 11 -4 11 -10z m157 -4 c0 -8 -6 -12
-15 -9 -11 5 -11 7 0 14 7 5 13 9 14 9 0 0 1 -6 1 -14z m310 -8 c-3 -8 -6 -5
-6 6 -1 11 2 17 5 13 3 -3 4 -12 1 -19z m-532 0 c5 4 5 2 1 -5 -8 -14 -36 -6
-36 9 0 7 5 6 13 -1 8 -6 18 -7 22 -3z m699 -4 c4 -9 4 -19 1 -22 -3 -3 -5 0
-5 7 0 7 -4 10 -8 7 -5 -3 -9 1 -9 9 0 20 13 19 21 -1z m-536 -14 c-7 -10 -14
-17 -17 -15 -4 4 18 35 25 35 2 0 -1 -9 -8 -20z m107 0 c-3 -4 1 -11 7 -13 8
-4 7 -6 -4 -6 -11 -1 -16 6 -15 18 0 11 5 17 9 15 5 -3 6 -9 3 -14z m75 10 c8
-5 11 -10 5 -10 -5 0 -17 5 -25 10 -8 5 -10 10 -5 10 6 0 17 -5 25 -10z m270
0 c0 -5 -7 -10 -16 -10 -9 0 -12 -5 -8 -12 4 -7 3 -8 -4 -4 -8 5 -12 -1 -12
-16 0 -17 -2 -20 -9 -9 -5 8 -7 21 -3 29 3 10 1 13 -6 8 -7 -4 -12 -2 -12 5 0
6 8 9 19 6 10 -2 25 -1 32 4 18 11 19 11 19 -1z m-686 -12 c-3 -5 0 -16 8 -25
12 -15 11 -15 -9 -2 -26 16 -30 36 -8 36 8 0 12 -4 9 -9z m168 -2 c11 -11 15
-11 25 3 10 13 10 9 1 -16 -7 -18 -16 -33 -21 -33 -5 0 -7 6 -4 14 6 16 -16
40 -26 29 -4 -3 -7 -1 -7 5 0 16 16 15 32 -2z m283 -5 c-3 -6 -11 -11 -16 -11
-5 0 -4 6 3 14 14 16 24 13 13 -3z m39 4 c-4 -8 -8 -15 -10 -15 -2 0 -4 7 -4
15 0 8 4 15 10 15 5 0 7 -7 4 -15z m106 -11 c0 -9 5 -12 12 -8 7 4 8 3 4 -4
-4 -7 -14 -12 -22 -12 -9 0 -12 5 -8 11 3 6 0 15 -7 20 -11 7 -10 9 4 9 9 0
17 -7 17 -16z m113 3 c3 -8 -3 -14 -15 -14 -16 -2 -17 1 -8 13 15 17 17 17 23
1z m-753 -1 c0 -2 -7 -9 -15 -16 -13 -11 -14 -10 -9 4 5 14 24 23 24 12z m117
-9 c0 -8 -6 -14 -12 -14 -6 0 -12 6 -12 14 0 7 6 13 12 13 6 0 12 -6 12 -13z
m172 -8 c-17 -17 -23 -18 -32 -9 -9 10 -9 11 1 6 7 -4 15 -1 18 8 3 9 12 16
20 16 10 0 8 -6 -7 -21z m165 6 c-4 -8 -10 -15 -15 -15 -4 0 -6 7 -3 15 4 8
10 15 15 15 4 0 6 -7 3 -15z m114 -7 c10 -12 10 -18 1 -24 -7 -4 -9 -3 -5 4 3
6 2 13 -4 17 -5 3 -10 11 -10 17 0 6 1 9 3 7 1 -2 8 -11 15 -21z m-420 -13
c-3 -3 -9 2 -12 12 -6 14 -5 15 5 6 7 -7 10 -15 7 -18z m377 7 c-3 -3 -11 0
-18 7 -9 10 -8 11 6 5 10 -3 15 -9 12 -12z m77 -19 c-6 -3 -9 -10 -5 -16 3 -7
2 -9 -2 -4 -5 4 -9 18 -10 32 -1 23 1 24 15 9 11 -13 12 -18 2 -21z m220 23
c7 4 8 2 4 -4 -11 -18 -26 -14 -25 6 0 10 3 12 6 4 2 -6 10 -9 15 -6z m-802 0
c0 -3 -4 -8 -10 -11 -5 -3 -10 -1 -10 4 0 6 5 11 10 11 6 0 10 -2 10 -4z m175
-15 c-3 -6 -11 -8 -17 -5 -6 4 -5 9 3 15 16 10 23 4 14 -10z m170 11 c-3 -3 0
-11 6 -19 17 -20 5 -16 -14 5 -15 16 -15 19 -2 19 8 0 13 -3 10 -5z m115 -7
c-7 -8 -17 -15 -22 -15 -6 0 -5 7 2 15 7 8 17 15 22 15 6 0 5 -7 -2 -15z m238
-10 c-3 -3 -9 2 -12 12 -6 14 -5 15 5 6 7 -7 10 -15 7 -18z m-648 -5 c-24 -15
-36 -11 -14 4 10 8 21 12 24 10 2 -3 -2 -9 -10 -14z m228 7 c-1 -2 4 -12 12
-23 11 -15 11 -16 0 -6 -21 19 -32 14 -20 -8 6 -11 15 -18 20 -15 5 3 12 0 16
-6 5 -9 -1 -10 -20 -5 -21 5 -26 4 -20 -6 6 -10 4 -10 -9 0 -19 16 -61 6 -54
-12 3 -7 -1 -13 -8 -13 -10 0 -7 12 11 42 13 23 21 46 16 51 -4 4 0 3 10 -4
13 -11 19 -10 30 1 11 13 26 16 16 4z m142 -7 c0 -5 -2 -10 -4 -10 -3 0 -8 5
-11 10 -3 6 -1 10 4 10 6 0 11 -4 11 -10z m191 -14 c-7 -8 -10 -20 -6 -26 3
-5 -1 -10 -10 -10 -14 0 -14 3 0 31 9 17 19 28 22 25 3 -3 0 -12 -6 -20z m153
11 c3 3 6 1 6 -6 0 -8 -6 -11 -16 -7 -9 3 -20 6 -25 6 -5 0 -9 5 -9 10 0 7 6
7 19 1 10 -6 21 -7 25 -4z m-662 -8 c-13 -5 -21 -13 -17 -19 4 -6 -1 -7 -11
-3 -16 6 -15 7 2 20 10 7 25 13 33 12 10 0 7 -4 -7 -10z m378 1 c0 -5 -2 -10
-4 -10 -3 0 -8 5 -11 10 -3 6 -1 10 4 10 6 0 11 -4 11 -10z m61 -19 c6 9 9 10
9 2 0 -17 -23 -29 -28 -15 -2 7 -11 12 -20 12 -15 0 -15 2 -2 10 10 6 17 4 24
-7 7 -13 10 -13 17 -2z m-186 -1 c3 -5 1 -10 -4 -10 -6 0 -11 5 -11 10 0 6 2
10 4 10 3 0 8 -4 11 -10z m400 -10 c10 -11 16 -20 13 -20 -3 0 -13 9 -23 20
-10 11 -16 20 -13 20 3 0 13 -9 23 -20z m-591 -1 c-3 -6 0 -15 7 -20 11 -7 11
-9 -2 -9 -17 0 -32 24 -22 34 11 11 24 6 17 -5z m221 -6 c-1 -10 1 -25 6 -34
4 -8 3 -22 -2 -30 -8 -12 -10 -12 -8 1 1 8 -1 23 -5 33 -5 9 -6 24 -2 32 7 20
15 19 11 -2z m28 -3 c3 -11 1 -20 -4 -20 -5 0 -9 9 -9 20 0 11 2 20 4 20 2 0
6 -9 9 -20z m287 4 c0 -8 -4 -12 -10 -9 -5 3 -10 -2 -11 -12 0 -11 -3 -13 -6
-5 -3 7 1 19 7 27 16 19 20 19 20 -1z m-195 -4 c-3 -5 -11 -10 -16 -10 -6 0
-7 5 -4 10 3 6 11 10 16 10 6 0 7 -4 4 -10z m65 -17 c0 -9 -3 -13 -7 -10 -9
10 -34 -14 -27 -27 3 -6 -2 -2 -10 8 -9 11 -16 25 -16 30 0 6 5 4 10 -4 9 -13
12 -13 21 3 13 22 29 22 29 0z m-330 -3 c0 -5 -5 -10 -11 -10 -5 0 -7 5 -4 10
3 6 8 10 11 10 2 0 4 -4 4 -10z m78 -34 c-10 -7 -15 -16 -11 -20 10 -10 12
-36 3 -36 -5 0 -12 5 -15 10 -4 6 -11 8 -16 5 -5 -4 -9 -1 -9 5 0 7 8 9 20 5
27 -9 25 3 -2 15 -19 7 -19 9 -5 9 10 1 15 5 12 11 -4 6 1 7 11 3 14 -5 16 -3
10 13 -6 16 -5 17 6 6 11 -11 10 -16 -4 -26z m288 22 c4 -6 3 -8 -3 -5 -6 4
-10 -4 -10 -18 0 -16 5 -25 15 -25 8 0 13 -3 9 -6 -3 -3 -14 -3 -24 0 -15 5
-18 13 -15 36 4 31 16 38 28 18z m167 -18 c-3 -10 -15 -22 -27 -26 -21 -7 -21
-7 -1 -15 14 -5 15 -8 5 -8 -18 -1 -40 18 -40 34 0 5 5 3 10 -5 7 -11 10 -11
10 -2 0 7 4 11 9 7 5 -3 12 4 16 15 8 26 25 26 18 0z m-120 -5 c-3 -9 -8 -14
-10 -11 -3 3 -2 9 2 15 9 16 15 13 8 -4z m50 0 c-3 -9 -8 -14 -10 -11 -3 3 -2
9 2 15 9 16 15 13 8 -4z m-263 -5 c0 -5 -4 -10 -10 -10 -5 0 -10 5 -10 10 0 6
5 10 10 10 6 0 10 -4 10 -10z m63 -5 c4 -8 2 -17 -3 -20 -6 -4 -10 1 -10 10 0
10 -5 13 -12 9 -7 -4 -8 -3 -4 4 10 16 23 15 29 -3z m127 5 c0 -5 -4 -10 -10
-10 -5 0 -10 5 -10 10 0 6 5 10 10 10 6 0 10 -4 10 -10z m-255 -51 c1 -9 -4
-16 -12 -16 -8 0 -11 8 -7 24 5 19 3 22 -12 16 -16 -6 -17 -5 -4 9 14 15 16
14 24 -1 6 -9 11 -23 11 -32z m206 -22 c-12 -12 20 -45 39 -40 10 3 9 1 -3 -7
-14 -9 -15 -15 -6 -32 7 -14 14 -17 21 -10 6 6 18 8 27 5 12 -3 11 -1 -3 11
-11 9 -17 18 -14 21 3 3 11 -1 18 -10 7 -8 20 -15 29 -15 30 -1 -13 -19 -45
-20 -50 -1 -63 3 -56 14 11 18 11 36 1 36 -6 0 -7 5 -4 10 6 9 -8 14 -28 11
-4 -1 -2 8 5 19 10 16 10 24 0 40 -20 33 -13 37 8 5 11 -17 16 -33 11 -38z
m-150 40 c-5 -5 -17 -5 -28 2 -16 9 -15 10 9 9 16 -2 24 -6 19 -11z m39 -7
c-6 -11 -16 -20 -23 -20 -8 0 -8 3 2 9 7 5 10 14 7 20 -4 6 0 11 9 11 13 0 14
-4 5 -20z m259 -24 c-2 -2 -13 8 -23 22 l-19 27 24 -22 c12 -12 21 -24 18 -27z
m-216 4 c3 -11 10 -20 17 -20 6 0 9 4 6 9 -3 5 1 12 9 15 13 5 14 2 5 -15 -6
-11 -16 -19 -22 -17 -16 6 -43 48 -30 48 5 0 12 -9 15 -20z m-176 3 c-4 -3 -1
-13 6 -22 11 -14 10 -14 -5 -2 -16 12 -16 31 -1 31 4 0 3 -3 0 -7z m156 -47
c-4 -17 -3 -18 6 -6 9 13 11 12 11 -3 0 -11 -5 -17 -12 -14 -7 2 -13 14 -12
26 0 11 -3 21 -8 21 -5 0 -6 5 -2 11 10 17 23 -9 17 -35z m-84 31 c-2 -1 -13
-9 -24 -17 -19 -14 -19 -14 -6 3 7 9 18 17 24 17 6 0 8 -1 6 -3z m231 -17 c0
-5 -5 -10 -11 -10 -5 0 -7 5 -4 10 3 6 8 10 11 10 2 0 4 -4 4 -10z m-90 -30
c11 -11 16 -20 12 -20 -5 0 -17 9 -27 20 -10 11 -15 20 -12 20 4 0 16 -9 27
-20z m194 -17 c4 -10 4 -14 0 -10 -4 4 -14 1 -22 -6 -13 -11 -14 -9 -1 11 17
26 15 26 23 5z m-247 -16 c0 -8 -6 -14 -14 -14 -17 0 -17 14 0 20 6 3 12 6 13
6 0 1 1 -5 1 -12z m54 -17 c11 0 17 -5 14 -10 -9 -15 -45 7 -44 28 1 16 2 16
6 0 2 -10 13 -18 24 -18z m152 -25 c-3 -8 -9 -15 -14 -15 -5 0 -9 -7 -9 -16 0
-8 -4 -13 -8 -10 -4 2 -14 1 -22 -5 -13 -7 -12 -9 2 -9 9 0 20 -4 23 -10 4 -6
-1 -7 -11 -3 -13 5 -15 3 -10 -8 4 -8 2 -7 -6 2 -7 9 -22 18 -32 20 -11 2 -21
10 -22 17 -1 7 0 8 3 2 2 -5 11 -10 20 -10 22 0 84 51 76 63 -3 6 -1 7 5 3 6
-4 9 -13 5 -21z m-38 5 c3 -5 1 -10 -4 -10 -6 0 -11 5 -11 10 0 6 2 10 4 10 3
0 8 -4 11 -10z m75 -5 c0 -8 -2 -15 -4 -15 -2 0 -6 7 -10 15 -3 8 -1 15 4 15
6 0 10 -7 10 -15z m-186 -10 c6 -17 4 -18 -18 -9 -20 8 -21 24 -2 24 8 0 16
-7 20 -15z m171 -45 c-4 -6 -11 -8 -16 -5 -5 4 -9 1 -9 -6 0 -7 -3 -10 -6 -6
-9 9 5 27 22 27 8 0 12 -5 9 -10z m-38 -82 c-3 -8 -6 -5 -6 6 -1 11 2 17 5 13
3 -3 4 -12 1 -19z"/>
<path d="M6666 5294 c-10 -25 1 -29 14 -5 6 12 7 21 1 21 -5 0 -12 -7 -15 -16z"/>
<path d="M6435 5290 c3 -5 11 -10 16 -10 6 0 7 5 4 10 -3 6 -11 10 -16 10 -6
0 -7 -4 -4 -10z"/>
<path d="M7560 5121 c0 -6 5 -13 10 -16 6 -3 10 1 10 9 0 9 -4 16 -10 16 -5 0
-10 -4 -10 -9z"/>
<path d="M7500 4940 c-12 -8 -11 -10 8 -10 12 0 22 5 22 10 0 13 -11 13 -30 0z"/>
<path d="M6124 4661 c-62 -38 -91 -100 -62 -129 20 -20 48 -14 85 18 40 36 81
39 128 10 38 -23 63 -18 71 16 8 32 -19 72 -61 90 -49 20 -124 18 -161 -5z"/>
<path d="M6973 4550 c-25 -15 -33 -27 -33 -48 0 -43 16 -52 80 -45 49 5 64 2
99 -18 22 -12 41 -25 41 -28 0 -13 52 -61 65 -61 22 0 45 29 45 59 0 43 -51
105 -111 135 -66 32 -139 35 -186 6z"/>
<path d="M6115 4306 c-63 -68 -74 -200 -19 -257 15 -16 46 -34 68 -40 33 -9
43 -8 65 8 88 64 85 248 -4 303 -46 29 -73 25 -110 -14z"/>
<path d="M6922 4184 c-34 -24 -53 -69 -58 -142 -6 -80 13 -125 67 -154 59 -33
124 -3 155 69 31 71 5 206 -44 232 -30 16 -94 13 -120 -5z"/>
<path d="M6382 4030 c-43 -26 -72 -76 -72 -123 0 -66 82 -131 118 -95 16 16
15 43 -3 58 -38 32 -4 80 56 80 43 0 55 14 45 53 -11 47 -88 61 -144 27z"/>
<path d="M6773 3674 c-73 -35 -135 -40 -213 -19 -137 37 -157 31 -145 -49 11
-73 61 -145 120 -174 69 -35 167 -41 226 -15 48 21 113 74 130 104 18 34 27
110 17 145 -8 31 -12 34 -46 33 -20 0 -60 -12 -89 -25z"/>
</g>
</svg>
